<svg width="22" height="14" viewBox="0 0 22 14" fill="none" xmlns="http://www.w3.org/2000/svg">
<path fill-rule="evenodd" clip-rule="evenodd" d="M0.500001 7.00003C0.500001 7.19894 0.579018 7.38971 0.719671 7.53036C0.860323 7.67101 1.05109 7.75003 1.25 7.75003L18.9395 7.75003L14.219 12.469C14.1493 12.5388 14.094 12.6215 14.0562 12.7127C14.0185 12.8038 13.9991 12.9014 13.9991 13C13.9991 13.0986 14.0185 13.1963 14.0562 13.2874C14.094 13.3785 14.1493 13.4613 14.219 13.531C14.2887 13.6008 14.3715 13.6561 14.4626 13.6938C14.5537 13.7316 14.6514 13.751 14.75 13.751C14.8486 13.751 14.9463 13.7316 15.0374 13.6938C15.1285 13.6561 15.2113 13.6008 15.281 13.531L21.281 7.53103C21.3508 7.46136 21.4063 7.3786 21.4441 7.28748C21.4819 7.19636 21.5013 7.09868 21.5013 7.00003C21.5013 6.90138 21.4819 6.8037 21.4441 6.71258C21.4063 6.62146 21.3508 6.5387 21.281 6.46903L15.281 0.46903C15.2113 0.399298 15.1285 0.343983 15.0374 0.306244C14.9463 0.268506 14.8486 0.249083 14.75 0.249083C14.6514 0.249083 14.5537 0.268506 14.4626 0.306245C14.3715 0.343983 14.2887 0.399298 14.219 0.46903C14.1493 0.538762 14.094 0.621546 14.0562 0.712655C14.0185 0.803764 13.9991 0.901414 13.9991 1.00003C13.9991 1.09865 14.0185 1.1963 14.0562 1.28741C14.094 1.37851 14.1493 1.4613 14.219 1.53103L18.9395 6.25003L1.25 6.25003C1.05109 6.25003 0.860323 6.32905 0.719671 6.4697C0.579018 6.61035 0.500001 6.80112 0.500001 7.00003Z" fill="#FF8000"/>
</svg>
