<svg width="20" height="27" viewBox="0 0 20 27" fill="none" xmlns="http://www.w3.org/2000/svg">
<path d="M8.21239 17.252C8.21239 16.004 8.48839 14.972 9.04039 14.156C9.61639 13.34 10.4444 12.44 11.5244 11.456C12.3164 10.736 12.8924 10.136 13.2524 9.656C13.6364 9.152 13.8284 8.588 13.8284 7.964C13.8284 7.076 13.4684 6.38 12.7484 5.876C12.0524 5.348 11.1164 5.084 9.94039 5.084C8.81239 5.084 7.80439 5.324 6.91639 5.804C6.05239 6.26 5.32039 6.908 4.72039 7.748L0.364391 5.192C1.37239 3.656 2.72839 2.468 4.43239 1.628C6.16039 0.787999 8.20039 0.368 10.5524 0.368C13.3124 0.368 15.5204 0.955999 17.1764 2.132C18.8564 3.308 19.6964 4.94 19.6964 7.028C19.6964 8.012 19.5284 8.876 19.1924 9.62C18.8804 10.364 18.4844 11 18.0044 11.528C17.5484 12.032 16.9484 12.62 16.2044 13.292C15.3164 14.084 14.6684 14.756 14.2604 15.308C13.8524 15.836 13.6484 16.484 13.6484 17.252H8.21239ZM10.9484 26.288C9.96439 26.288 9.13639 25.976 8.46439 25.352C7.81639 24.704 7.49239 23.924 7.49239 23.012C7.49239 22.1 7.81639 21.344 8.46439 20.744C9.11239 20.12 9.94039 19.808 10.9484 19.808C11.9564 19.808 12.7844 20.12 13.4324 20.744C14.0804 21.344 14.4044 22.1 14.4044 23.012C14.4044 23.924 14.0684 24.704 13.3964 25.352C12.7484 25.976 11.9324 26.288 10.9484 26.288Z" fill="#FF8000"/>
</svg>
