<svg width="31" height="96" viewBox="0 0 31 96" fill="none" xmlns="http://www.w3.org/2000/svg">
<g clip-path="url(#clip0_13_492)">
<path d="M6.80238 1.21299C6.80238 1.88244 6.25881 2.42599 5.5871 2.42599C4.9164 2.42599 4.37183 1.88344 4.37183 1.21299C4.37183 0.54255 4.9164 0 5.5871 0C6.25881 0 6.80238 0.54255 6.80238 1.21299Z" fill="#FF8000"/>
<path d="M17.5935 2.42599C18.2646 2.42599 18.8087 1.88291 18.8087 1.21299C18.8087 0.543076 18.2646 0 17.5935 0C16.9223 0 16.3782 0.543076 16.3782 1.21299C16.3782 1.88291 16.9223 2.42599 17.5935 2.42599Z" fill="#FF8000"/>
<path d="M30.8151 1.21299C30.8151 1.88244 30.2715 2.42599 29.5998 2.42599C28.9291 2.42599 28.3845 1.88344 28.3845 1.21299C28.3845 0.54255 28.9291 0 29.5998 0C30.2705 0 30.8151 0.54255 30.8151 1.21299Z" fill="#FF8000"/>
<path d="M6.80238 14.5812C6.80238 15.2506 6.25881 15.7942 5.5871 15.7942C4.9164 15.7942 4.37183 15.2516 4.37183 14.5812C4.37183 13.9117 4.9154 13.3682 5.5871 13.3682C6.25881 13.3682 6.80238 13.9107 6.80238 14.5812Z" fill="#FF8000"/>
<path d="M17.5935 15.7942C18.2646 15.7942 18.8087 15.2511 18.8087 14.5812C18.8087 13.9112 18.2646 13.3682 17.5935 13.3682C16.9223 13.3682 16.3782 13.9112 16.3782 14.5812C16.3782 15.2511 16.9223 15.7942 17.5935 15.7942Z" fill="#FF8000"/>
<path d="M30.8151 14.5812C30.8151 15.2506 30.2715 15.7942 29.5998 15.7942C28.9291 15.7942 28.3845 15.2516 28.3845 14.5812C28.3845 13.9117 28.9281 13.3682 29.5998 13.3682C30.2705 13.3682 30.8151 13.9107 30.8151 14.5812Z" fill="#FF8000"/>
<path d="M6.80238 27.9483C6.80238 28.6178 6.25881 29.1613 5.5871 29.1613C4.9164 29.1613 4.37183 28.6188 4.37183 27.9483C4.37183 27.2789 4.9154 26.7354 5.5871 26.7354C6.25881 26.7354 6.80238 27.2789 6.80238 27.9483Z" fill="#FF8000"/>
<path d="M18.8087 27.9483C18.8087 28.6178 18.2652 29.1613 17.5935 29.1613C16.9217 29.1613 16.3782 28.6188 16.3782 27.9483C16.3782 27.2789 16.9217 26.7354 17.5935 26.7354C18.2652 26.7354 18.8087 27.2789 18.8087 27.9483Z" fill="#FF8000"/>
<path d="M30.8151 27.9483C30.8151 28.6178 30.2715 29.1613 29.5998 29.1613C28.9291 29.1613 28.3845 28.6188 28.3845 27.9483C28.3845 27.2789 28.9281 26.7354 29.5998 26.7354C30.2705 26.7354 30.8151 27.2789 30.8151 27.9483Z" fill="#FF8000"/>
<path d="M6.80238 41.3165C6.80238 41.986 6.25881 42.5295 5.5871 42.5295C4.9164 42.5295 4.37183 41.987 4.37183 41.3165C4.37183 40.6461 4.9154 40.1035 5.5871 40.1035C6.25881 40.1035 6.80238 40.6471 6.80238 41.3165Z" fill="#FF8000"/>
<path d="M17.5935 42.5295C18.2646 42.5295 18.8087 41.9864 18.8087 41.3165C18.8087 40.6466 18.2646 40.1035 17.5935 40.1035C16.9223 40.1035 16.3782 40.6466 16.3782 41.3165C16.3782 41.9864 16.9223 42.5295 17.5935 42.5295Z" fill="#FF8000"/>
<path d="M30.8151 41.3165C30.8151 41.986 30.2715 42.5295 29.5998 42.5295C28.9291 42.5295 28.3845 41.987 28.3845 41.3165C28.3845 40.6461 28.9281 40.1035 29.5998 40.1035C30.2705 40.1035 30.8151 40.6471 30.8151 41.3165Z" fill="#FF8000"/>
<path d="M6.80238 54.6837C6.80238 55.3531 6.25881 55.8967 5.5871 55.8967C4.9164 55.8967 4.37183 55.3541 4.37183 54.6837C4.37183 54.0143 4.9154 53.4707 5.5871 53.4707C6.25881 53.4707 6.80238 54.0143 6.80238 54.6837Z" fill="#FF8000"/>
<path d="M18.8087 54.6837C18.8087 55.3531 18.2652 55.8967 17.5935 55.8967C16.9217 55.8967 16.3782 55.3541 16.3782 54.6837C16.3782 54.0143 16.9217 53.4707 17.5935 53.4707C18.2652 53.4707 18.8087 54.0143 18.8087 54.6837Z" fill="#FF8000"/>
<path d="M30.8151 54.6837C30.8151 55.3531 30.2715 55.8967 29.5998 55.8967C28.9291 55.8967 28.3845 55.3541 28.3845 54.6837C28.3845 54.0143 28.9281 53.4707 29.5998 53.4707C30.2705 53.4707 30.8151 54.0143 30.8151 54.6837Z" fill="#FF8000"/>
<path d="M6.80238 68.0519C6.80238 68.7213 6.25881 69.2649 5.5871 69.2649C4.9164 69.2649 4.37183 68.7223 4.37183 68.0519C4.37183 67.3824 4.9154 66.8389 5.5871 66.8389C6.25881 66.8399 6.80238 67.3824 6.80238 68.0519Z" fill="#FF8000"/>
<path d="M17.5935 69.2649C18.2646 69.2649 18.8087 68.7218 18.8087 68.0519C18.8087 67.3819 18.2646 66.8389 17.5935 66.8389C16.9223 66.8389 16.3782 67.3819 16.3782 68.0519C16.3782 68.7218 16.9223 69.2649 17.5935 69.2649Z" fill="#FF8000"/>
<path d="M30.8151 68.0519C30.8151 68.7213 30.2715 69.2649 29.5998 69.2649C28.9291 69.2649 28.3845 68.7223 28.3845 68.0519C28.3845 67.3824 28.9281 66.8389 29.5998 66.8389C30.2705 66.8399 30.8151 67.3824 30.8151 68.0519Z" fill="#FF8000"/>
<path d="M6.80238 81.4191C6.80238 82.0885 6.25881 82.632 5.5871 82.632C4.9164 82.632 4.37183 82.0895 4.37183 81.4191C4.37183 80.7496 4.9154 80.2061 5.5871 80.2061C6.25881 80.2071 6.80238 80.7496 6.80238 81.4191Z" fill="#FF8000"/>
<path d="M17.5935 82.632C18.2646 82.632 18.8087 82.089 18.8087 81.4191C18.8087 80.7491 18.2646 80.2061 17.5935 80.2061C16.9223 80.2061 16.3782 80.7491 16.3782 81.4191C16.3782 82.089 16.9223 82.632 17.5935 82.632Z" fill="#FF8000"/>
<path d="M30.8151 81.4191C30.8151 82.0885 30.2715 82.632 29.5998 82.632C28.9291 82.632 28.3845 82.0895 28.3845 81.4191C28.3845 80.7496 28.9281 80.2061 29.5998 80.2061C30.2705 80.2071 30.8151 80.7496 30.8151 81.4191Z" fill="#FF8000"/>
<path d="M6.80238 94.7872C6.80238 95.4567 6.25881 96.0002 5.5871 96.0002C4.9164 96.0002 4.37183 95.4577 4.37183 94.7872C4.37183 94.1178 4.9154 93.5742 5.5871 93.5742C6.25881 93.5742 6.80238 94.1168 6.80238 94.7872Z" fill="#FF8000"/>
<path d="M18.8087 94.7872C18.8087 95.4567 18.2652 96.0002 17.5935 96.0002C16.9217 96.0002 16.3782 95.4577 16.3782 94.7872C16.3782 94.1178 16.9217 93.5742 17.5935 93.5742C18.2652 93.5742 18.8087 94.1168 18.8087 94.7872Z" fill="#FF8000"/>
<path d="M30.8151 94.7872C30.8151 95.4567 30.2715 96.0002 29.5998 96.0002C28.9291 96.0002 28.3845 95.4577 28.3845 94.7872C28.3845 94.1178 28.9281 93.5742 29.5998 93.5742C30.2705 93.5742 30.8151 94.1168 30.8151 94.7872Z" fill="#FF8000"/>
</g>
<defs>
<clipPath id="clip0_13_492">
<rect width="75" height="96" fill="white" transform="translate(-44)"/>
</clipPath>
</defs>
</svg>
